<?xml version="1.0" encoding="UTF-8"?>
<svg width="23px" height="18px" viewBox="0 0 23 18" version="1.1" xmlns="http://www.w3.org/2000/svg" xmlns:xlink="http://www.w3.org/1999/xlink">
    <!-- Generator: Sketch 56.3 (81716) - https://sketch.com -->
    <title>alert</title>
    <desc>Created with Sketch.</desc>
    <g id="Page-1" stroke="none" stroke-width="1" fill="none" fill-rule="evenodd">
        <g id="alert" transform="translate(-1.000000, -3.000000)" fill-rule="nonzero">
            <g id="Mask" transform="translate(1.000000, 3.000000)" fill="#1A1A1A">
                <path d="M17.9000882,1.67764706 C19.4674706,1.67764706 20.6972941,2.90611765 20.6972941,4.47552941 L20.6972941,11.1881471 C20.6972941,12.8076176 19.5209118,13.9833235 17.8987353,13.9833235 L16.7812059,13.984 C15.7692059,13.984 14.8032059,14.2836765 13.9846765,14.8390588 C13.1654706,14.2836765 12.1994706,13.984 11.1874706,13.984 L10.0685882,13.984 L4.47485294,13.9833235 C2.85402941,13.9833235 1.67764706,12.8076176 1.67764706,11.1881471 L1.67764706,4.47552941 C1.67764706,2.90611765 2.90611765,1.67764706 4.47485294,1.67764706 L17.9000882,1.67764706 Z M17.9000882,-1.86517468e-13 L4.47485294,-1.86517468e-13 C1.97055882,-1.86517468e-13 0,1.97123529 0,4.47552941 L0,11.1881471 C0,13.7228824 1.92726471,15.6609706 4.47485294,15.6609706 L10.0685882,15.663 L11.1874706,15.663 C12.0702647,15.663 12.8996176,16.0052941 13.524,16.6269706 L13.9846765,17.0856176 L14.4446765,16.6269706 C15.0683824,16.0052941 15.8984118,15.663 16.7812059,15.663 L17.9000882,15.6609706 C20.4476765,15.6609706 22.3749412,13.7228824 22.3749412,11.1881471 L22.3749412,4.47552941 C22.3749412,1.97123529 20.4043824,-1.86517468e-13 17.9000882,-1.86517468e-13 L17.9000882,-1.86517468e-13 Z" id="Fill-28"></path>
                <polygon id="Fill-30" points="4.69829118 6.43228824 17.6757029 6.43228824 17.6757029 4.75464118 4.69829118 4.75464118"></polygon>
                <polygon id="Fill-32" points="4.69829118 10.9071412 17.6757029 10.9071412 17.6757029 9.22949412 4.69829118 9.22949412"></polygon>
            </g>
            <rect id="Rectangle" x="0" y="0" width="24" height="24"></rect>
        </g>
    </g>
</svg>
