<?xml version="1.0" encoding="UTF-8"?>
<svg width="22px" height="22px" viewBox="0 0 22 22" version="1.1" xmlns="http://www.w3.org/2000/svg" xmlns:xlink="http://www.w3.org/1999/xlink">
    <!-- Generator: Sketch 57.1 (83088) - https://sketch.com -->
    <title>Icon color Copy</title>
    <desc>Created with Sketch.</desc>
    <defs>
        <path d="M10.9995527,1.56319402e-13 C17.0745334,1.56319402e-13 22,4.92457203 22,10.9995527 C22,17.0745334 17.0745334,22 10.9995527,22 C4.92457203,22 -1.11910481e-13,17.0745334 -1.11910481e-13,10.9995527 C-1.11910481e-13,4.92457203 4.92457203,1.56319402e-13 10.9995527,1.56319402e-13 Z M10.9995527,2.35717481 C6.23510755,2.35717481 2.35806937,6.23421299 2.35806937,10.9995527 C2.35806937,15.765787 6.23510755,19.6428252 10.9995527,19.6428252 C15.7648924,19.6428252 19.6419306,15.765787 19.6419306,10.9995527 C19.6419306,6.23421299 15.7648924,2.35717481 10.9995527,2.35717481 Z M12.1780385,14.011145 L12.1780385,16.2886309 L9.82115005,16.2886309 L9.82178261,14.0117775 L12.1780385,14.011145 Z M12.1780385,4.5265085 L12.1780385,11.9712487 L9.82115005,11.9712487 L9.82178261,4.52714105 L12.1780385,4.5265085 Z" id="path-1"></path>
    </defs>
    <g id="1.-Atoms" stroke="none" stroke-width="1" fill="none" fill-rule="evenodd">
        <g id="Icon-color-Copy">
            <g id="Mask"></g>
            <mask id="mask-2" fill="white">
                <use xlink:href="#path-1"></use>
            </mask>
            <use id="Mask" fill="#F1F1F1" xlink:href="#path-1"></use>
        </g>
    </g>
</svg>