<?xml version="1.0" encoding="UTF-8"?>
<svg width="22px" height="22px" viewBox="0 0 22 22" version="1.1" xmlns="http://www.w3.org/2000/svg" xmlns:xlink="http://www.w3.org/1999/xlink">
    <!-- Generator: Sketch 57.1 (83088) - https://sketch.com -->
    <title>Path Copy 2</title>
    <desc>Created with Sketch.</desc>
    <g id="1.-Atoms" stroke="none" stroke-width="1" fill="none" fill-rule="evenodd">
        <g id="Path-Copy-2" fill="#F1F1F1">
            <path d="M10.9995527,1.70530257e-13 C4.92457203,1.70530257e-13 0,4.92457203 0,10.9995527 C0,17.0745334 4.92457203,22 10.9995527,22 C17.0745334,22 22,17.0745334 22,10.9995527 C22,4.92457203 17.0745334,1.70530257e-13 10.9995527,1.70530257e-13 M10.9995527,19.6428252 C6.23510755,19.6428252 2.35806937,15.765787 2.35806937,10.9995527 C2.35806937,6.23421299 6.23510755,2.35717481 10.9995527,2.35717481 C15.7648924,2.35717481 19.6419306,6.23421299 19.6419306,10.9995527 C19.6419306,15.765787 15.7648924,19.6428252 10.9995527,19.6428252" id="Fill-38"></path>
            <polygon id="Path" points="9 17 4 11.7191551 5.415 10.2246759 9 14.0110418 16.585 6 18 7.49447912"></polygon>
        </g>
    </g>
</svg>