<?xml version="1.0" encoding="UTF-8"?>
<svg width="22px" height="22px" viewBox="0 0 22 22" version="1.1" xmlns="http://www.w3.org/2000/svg" xmlns:xlink="http://www.w3.org/1999/xlink">
    <!-- Generator: Sketch 57.1 (83088) - https://sketch.com -->
    <title>Icon color Copy</title>
    <desc>Created with Sketch.</desc>
    <g id="1.-Atoms" stroke="none" stroke-width="1" fill="none" fill-rule="evenodd">
        <g id="Icon-color-Copy" fill="#F1F1F1">
            <g id="Mask">
                <path d="M10.9995527,1.70530257e-13 C4.92457203,1.70530257e-13 0,4.92457203 0,10.9995527 C0,17.0745334 4.92457203,22 10.9995527,22 C17.0745334,22 22,17.0745334 22,10.9995527 C22,4.92457203 17.0745334,1.70530257e-13 10.9995527,1.70530257e-13 M10.9995527,19.6428252 C6.23510755,19.6428252 2.35806937,15.765787 2.35806937,10.9995527 C2.35806937,6.23421299 6.23510755,2.35717481 10.9995527,2.35717481 C15.7648924,2.35717481 19.6419306,6.23421299 19.6419306,10.9995527 C19.6419306,15.765787 15.7648924,19.6428252 10.9995527,19.6428252" id="Fill-38"></path>
                <path d="M10.9962916,6.4070615 C10.2372164,6.4070615 9.62186788,5.79171298 9.62186788,5.03268793 C9.62186788,4.27361276 10.2372164,3.65831435 10.9962916,3.65831435 C11.7553166,3.65831435 12.3706651,4.27361276 12.3706651,5.03268793 C12.3706651,5.79171298 11.7553166,6.4070615 10.9962916,6.4070615 Z" id="Fill-4"></path>
                <polygon id="Fill-6" points="7.96810934 17.0705968 7.96810934 15.2652437 10.4419818 15.2652437 10.4419818 9.9238041 7.96810934 9.9238041 7.96810934 8.11845103 12.3847973 8.11845103 12.3847973 15.2652437 14.4463827 15.2652437 14.4463827 17.0705968"></polygon>
            </g>
        </g>
    </g>
</svg>