<?xml version="1.0" encoding="utf-8"?>
<!-- Generator: Adobe Illustrator 21.0.2, SVG Export Plug-In . SVG Version: 6.00 Build 0)  -->
<svg version="1.1" id="Layer_1" xmlns="http://www.w3.org/2000/svg" xmlns:xlink="http://www.w3.org/1999/xlink" x="0px" y="0px"
	 viewBox="0 0 513 512" style="enable-background:new 0 0 513 512;" xml:space="preserve">
<title>heart-o</title>
<path d="M430.3,129.8c-21.8-21.9-51.4-34.2-82.3-34.1c-55,0-82.7,33.4-91.5,46.6c-8.8-13.2-36.5-46.6-91.5-46.6H165
	C100.7,95.8,48.6,148,48.7,212.3c0,30.8,12.3,60.4,34,82.2c23.9,23.9,45.8,43.2,67,61.9c29.9,26.3,58.1,51.2,87.7,85.3
	c3.4,3.9,16.2,20.4,16.3,20.6l2.8,3.6l2.8-3.6c0.1-0.2,12.9-16.7,16.3-20.6c29.6-34.1,57.8-59,87.7-85.3c21.2-18.7,43.1-38,67-61.9
	C475.6,248.9,475.6,175.3,430.3,129.8L430.3,129.8z"/>
</svg>
