<?xml version="1.0" encoding="utf-8"?><svg data-name="Layer 1" xmlns="http://www.w3.org/2000/svg" viewBox="0 0 513 512" width="513" height="512"><title>heart-o</title><path fill="#ffffff" d="M430.3 129.81A115.62 115.62 0 0 0 348 95.72c-55 0-82.69 33.42-91.47 46.59-8.78-13.17-36.48-46.59-91.46-46.59H165a116.44 116.44 0 0 0-82.3 198.71c23.91 23.91 45.83 43.23 67 61.91 29.88 26.33 58.1 51.2 87.69 85.34 3.39 3.92 16.19 20.42 16.32 20.58l2.77 3.57 2.77-3.57c.13-.17 12.92-16.67 16.32-20.58 29.59-34.14 57.81-59 87.69-85.34 21.2-18.68 43.12-38 67-61.91a116.52 116.52 0 0 0 0-164.61zm-22.12 142.5c-23.24 23.24-44.78 42.22-65.6 60.57-29.2 25.73-56.81 50.07-86.09 83.12-29.27-33-56.89-57.39-86.1-83.13-20.82-18.35-42.36-37.32-65.59-60.56A85.12 85.12 0 0 1 165.07 127c60.28 0 80.4 52.21 91.46 71.76C267.59 179.2 287.7 127 348 127a85.16 85.16 0 0 1 60.19 145.31z"/></svg>
