<?xml version="1.0" encoding="utf-8"?><svg data-name="Layer 1" xmlns="http://www.w3.org/2000/svg" viewBox="0 0 512 512" width="512" height="512"><path d="M256 155a68.59 68.59 0 1 0 68.59 68.59A68.59 68.59 0 0 0 256 155zm0 102.88a34.29 34.29 0 1 1 34.29-34.29A34.33 34.33 0 0 1 256 257.91z"/><path d="M378.45 102.37a174.39 174.39 0 0 0-244.9 0c-67.63 67-63 171.28 0 242.49C198.28 418 232.9 463.59 256 509.4c23.22-45.81 57.72-91.43 122.45-164.54 63.05-71.21 67.63-175.53 0-242.49zm-25.68 219.76c-44.37 50.13-74.49 87.29-96.77 120.15-22.2-32.76-52.35-69.95-96.8-120.15-25.57-28.88-39.91-64.59-40.39-100.56-.48-36.4 13-69.2 38.84-94.83a140.1 140.1 0 0 1 196.64 0c25.89 25.64 39.32 58.43 38.84 94.83-.44 35.97-14.79 71.68-40.36 100.56z"/></svg>
