<?xml version="1.0" encoding="utf-8"?><svg data-name="Layer 1" xmlns="http://www.w3.org/2000/svg" viewBox="0 0 512 512" width="512" height="512"><path d="M348.85 243.65a18.71 18.71 0 1 0 8.36 25.11 18.69 18.69 0 0 0-8.36-25.11z"/><path d="M376.65 178.21a157.38 157.38 0 0 0 19.1-74.74L221.07 28.61A147.12 147.12 0 0 1 177.83 133l-62.89 62.89c-26.71 26.71-43.61 66.5-43.61 107.26l78.57 33.6a156.26 156.26 0 0 0-19.37 74.7l175.08 74.85a147.15 147.15 0 0 1 43.23-104.38L411.73 319C438.44 292.32 455 252.53 455 211.77zm-235.24 44.14l62.89-62.89a188 188 0 0 0 15.81-18 18.7 18.7 0 1 0 19.33-30.91A182.47 182.47 0 0 0 250.71 82l105.21 45.09a118.68 118.68 0 0 1-13.49 35.54 18.72 18.72 0 1 0-23.6 28.83l-55.66 55.66a184.06 184.06 0 0 0-46.42 77.45l-105.52-45.09c4.53-21.72 15.12-42.08 30.18-57.13zM401.62 271A18.72 18.72 0 1 0 378 299.8l-55.66 55.66a184.06 184.06 0 0 0-46.42 77.45l-105.49-45.13a118.66 118.66 0 0 1 14.06-36.25L246.4 378a147.15 147.15 0 0 1 43.23-104.38l62.89-62.89c.49-.49 1-1 1.47-1.51l61.12 26.19A118.68 118.68 0 0 1 401.62 271z"/><path d="M272.88 168.82a18.72 18.72 0 1 0-8.34-25.13 18.68 18.68 0 0 0 8.34 25.13z"/></svg>
