<?xml version="1.0" encoding="utf-8"?><svg xmlns="http://www.w3.org/2000/svg" viewBox="0 0 512 512" width="512" height="512"><path d="M109.5 470.1c-35 0-63.5-28.5-63.5-63.5V160.5c0-35 28.5-63.5 63.5-63.5h25V39h36v58h174V39h36v58h21c35 0 63.5 28.5 63.6 63.5v246.1c0 35-28.5 63.5-63.5 63.5H109.5zM82 406.5c0 15.2 12.3 27.5 27.5 27.5h292c15.2 0 27.5-12.3 27.5-27.5v-171H82v171zM109.5 133C94.3 133 82 145.3 82 160.5v39h347.1v-39c0-15.2-12.3-27.5-27.5-27.5H109.5z"/><path d="M122.5 276.5h40v40h-40zM197.7 277h40v40h-40zM272.8 277h40v40h-40zM348 277h40v40h-40zM122.5 353.5h40v40h-40zM197.7 354h40v40h-40zM272.8 354h40v40h-40z"/></svg>