<?xml version="1.0" encoding="utf-8"?>
<!-- Generator: Adobe Illustrator 22.0.1, SVG Export Plug-In . SVG Version: 6.00 Build 0)  -->
<svg version="1.1" id="Layer_1" xmlns="http://www.w3.org/2000/svg" xmlns:xlink="http://www.w3.org/1999/xlink" x="0px" y="0px"
	 viewBox="0 0 265 225" style="enable-background:new 0 0 265 225;" xml:space="preserve">
<g>
	<path d="M222.5,21h-182c-1.9,0-3.5,1.6-3.5,3.5v49c0,1.9,1.6,3.5,3.5,3.5s3.5-1.6,3.5-3.5V28h175v45.5c0,1.9,1.6,3.5,3.5,3.5
		s3.5-1.6,3.5-3.5v-49C226,22.6,224.4,21,222.5,21z"/>
	<path d="M222.5,87c-1.9,0-3.5,1.6-3.5,3.5V138H44V90.5c0-1.9-1.6-3.5-3.5-3.5S37,88.6,37,90.5v51c0,1.9,1.6,3.5,3.5,3.5h182
		c1.9,0,3.5-1.6,3.5-3.5v-51C226,88.6,224.4,87,222.5,87z"/>
	<path d="M261.9,200.8C261.9,200.8,261.9,200.8,261.9,200.8c-0.1-0.3-0.2-0.6-0.3-0.8c0,0,0,0,0-0.1l-21.2-43.4
		c0-0.2,0.1-0.4,0.1-0.6V10c0-1.9-1.6-3.5-3.5-3.5H27c-1.9,0-3.5,1.6-3.5,3.5v146c0,0.2,0,0.4,0.1,0.6L2.4,200c0,0,0,0,0,0.1
		c-0.1,0.2-0.2,0.5-0.3,0.8c0,0,0,0,0,0c0,0.2-0.1,0.4-0.1,0.7v14c0,1.9,1.6,3.5,3.5,3.5h253c1.9,0,3.5-1.6,3.5-3.5v-14
		C262,201.3,262,201,261.9,200.8z M30.5,13.5h203v139h-203V13.5z M29.7,160h204.6l18.6,38h-82.6l-8.6-20.8c-0.5-1.3-1.8-2.2-3.2-2.2
		h-50.1c-1.5,0-2.8,0.9-3.3,2.3L97.5,198H11.1L29.7,160z M162.8,198H105l5.8-16h45.4L162.8,198z M255,212H9v-7h91h68h87V212z"/>
</g>
</svg>
