<?xml version="1.0" encoding="utf-8"?>
<!-- Generator: Adobe Illustrator 22.0.1, SVG Export Plug-In . SVG Version: 6.00 Build 0)  -->
<svg version="1.1" id="Layer_1" xmlns="http://www.w3.org/2000/svg" xmlns:xlink="http://www.w3.org/1999/xlink" x="0px" y="0px"
	 viewBox="0 0 265 225" style="enable-background:new 0 0 265 225;" xml:space="preserve">
<g>
	<path d="M124.9,55.9L107.8,73c-1.1,1.1-1.2,3-0.1,4.2l106,113.8c0.6,0.6,1.4,1,2.2,1c0.1,0,0.1,0,0.2,0c8.8-0.5,16.9-4.4,22.2-10.8
		c4.3-5.2,6.3-11.4,5.5-17.5c-0.1-0.7-0.4-1.3-0.9-1.8l-113.8-106C127.9,54.7,126.1,54.7,124.9,55.9z M233.7,177.3
		c-3.9,4.7-10.1,7.8-16.6,8.5L114.1,75.2l13.1-13.1L238,165.4C238.2,169.5,236.7,173.7,233.7,177.3z"/>
	<path d="M71.1,79.6c0.6,0.6,1.3,0.9,2.1,0.9c0.1,0,0.2,0,0.3,0c0.9-0.1,1.7-0.6,2.2-1.3c0.4-0.6,10.5-15.6,26.6-7.5
		c1.2,0.6,2.5,0.4,3.5-0.6l16.4-16.4c0.8-0.8,1.1-1.9,0.7-3L116.5,31c3.4-2.5,12-8,21.3-7.4c5.1,0.3,9.8,0.3,10.6-3.2
		c0.6-2.4-1.1-4.4-5-6.3c-2.2-1.6-15.9-11.3-32.1-10.5C94.4,4.3,76.2,18.3,69.1,30.8c-2,3.6-3.5,6.2-4.3,7.9
		c-0.4,0.9-1.1,2.2-0.9,3.4c-0.6,3.1-2.9,13.1-7.2,19.8c-0.8,1.2-0.6,2.7,0.4,3.7L71.1,79.6z M70,42.1c0-0.2,0-0.3,0-0.5
		c0.4-0.9,1.5-3,4.3-7.9c5.5-9.7,21.6-23.5,37.3-24.2c11.5-0.6,21.9,5.2,26.3,8c-14.2-0.7-26.3,9.7-26.8,10.1
		c-0.9,0.8-1.3,2-0.9,3.2l6.5,20.9L103,65.3c-13.6-5.7-24.5,1.3-30.1,7.6L63,63C67.8,54.1,69.9,42.7,70,42.1z"/>
	<path d="M56.3,99.1c0.6,0.6,1.4,0.9,2.1,0.9s1.5-0.3,2.1-0.9l10.9-10.9c0.6-0.6,0.9-1.3,0.9-2.1c0-0.8-0.3-1.6-0.9-2.1L52.8,65.2
		c-1.2-1.2-3.1-1.2-4.2,0L37.6,76.1c-0.6,0.6-0.9,1.3-0.9,2.1c0,0.8,0.3,1.6,0.9,2.1L56.3,99.1z M50.7,71.6L65.1,86l-6.7,6.7
		L44,78.2L50.7,71.6z"/>
	<path d="M239.1,197.3H44.7V161l7.6-5.7c1-0.8,1.5-2.1,1-3.3c-0.4-1.2-1.6-2.1-2.8-2.1H34c-1.3,0-2.4,0.8-2.8,2s-0.1,2.5,0.9,3.3
		l6.7,5.7v36.4H23c-1.7,0-3,1.3-3,3V219c0,1.7,1.3,3,3,3h216.1c1.7,0,3-1.3,3-3v-18.7C242.1,198.6,240.7,197.3,239.1,197.3z
		 M236.1,216H26v-12.7h210.1V216z"/>
</g>
</svg>
