<?xml version="1.0" encoding="UTF-8"?>
<svg width="96px" height="96px" viewBox="0 0 96 96" version="1.1" xmlns="http://www.w3.org/2000/svg" xmlns:xlink="http://www.w3.org/1999/xlink">
    <!-- Generator: Sketch 59.1 (86144) - https://sketch.com -->
    <title>Icons/Sauna/96</title>
    <desc>Created with Sketch.</desc>
    <g id="Icons/Sauna/96" stroke="none" stroke-width="1" fill="none" fill-rule="evenodd">
        <rect id="Bounding-box" x="0" y="0" width="96" height="96"></rect>
        <path d="M52.8564175,24.0441639 C64.6935488,24.0441639 71.9636148,32.8870718 74.3180353,49.1822853 L74.4560386,50.1892511 C74.6998811,52.0686278 73.9183573,53.9325282 72.4050629,55.094508 C71.8825873,55.4956899 71.3245171,55.9351457 70.7313668,56.412476 C71.727314,56.6874018 72.7419267,56.9830619 73.7744209,57.299828 C74.5664132,57.5428089 75.0114749,58.3818204 74.768494,59.1738127 C74.5255132,59.965805 73.6865016,60.4108667 72.8945093,60.1678858 C71.1723878,59.6395441 69.504231,59.1722768 67.8840363,58.7635465 L67.5345701,59.0628365 L66.6568717,59.8124844 L65.3558686,60.9371527 L64.4952112,61.6890095 C64.0678961,62.0637347 63.5971274,62.3599603 63.1011611,62.5786621 C65.8476563,62.0793105 69.003082,63.0595656 73.3220932,65.7233369 C74.0271984,66.158214 74.2462616,67.0823523 73.8113845,67.7874576 C73.3765074,68.4925628 72.4523691,68.711626 71.7472638,68.2767489 C71.019266,67.8277527 70.3319437,67.4381404 69.6821777,67.1048614 L64.9294776,90.7538806 C64.2222801,94.2733836 60.7958624,96.5532076 57.2763594,95.8460101 C53.7568565,95.1388126 51.4770325,91.7123948 52.18423,88.1928919 L55.3513483,72.4337366 C53.6125001,73.9121752 51.9675814,74.6743602 49.727717,74.9650306 C47.4446015,75.2613137 45.6470714,74.8638144 43.662323,73.6631341 L47.2223045,80.7292688 C48.8375366,83.9352093 47.5480128,87.8435419 44.3420723,89.4587741 C41.1361318,91.0740063 37.2277992,89.7844824 35.612567,86.5785419 L27.6953235,70.8642612 C27.5902408,70.6556912 27.4973366,70.443645 27.416428,70.2290115 C26.8345566,70.657018 26.0118288,70.6098345 25.4809937,70.0859135 C24.8913801,69.5039795 24.8851545,68.5542524 25.4670885,67.9646387 C31.0939446,62.2635264 35.0847728,62.5610552 40.2363857,67.0253773 L40.4787285,67.2376873 L41.9372957,68.5493785 C45.1224042,71.3880102 46.8864553,72.3085896 49.3416401,71.9899768 C51.6582254,71.6893503 53.1452619,70.6596695 55.4832742,68.0898578 L55.7466407,67.7979439 L56.6303632,66.8118339 C58.3310449,64.9536841 59.9361182,63.6598323 61.6592743,62.988134 C59.9240352,63.2352018 58.1006847,62.650671 56.8404284,61.2707526 C55.6553885,59.9731925 55.2331038,58.2631589 55.5429566,56.6728776 C53.4684146,56.5125629 51.4626304,56.4664434 49.5064348,56.5249946 C45.0867658,56.6572806 41.6379561,57.1801841 36.353101,58.4252128 L35.7099257,58.5781037 L34.4650177,58.8808702 L30.0519092,59.9814285 L29.171789,60.1932849 C28.3657692,60.3846577 27.5572227,59.8863878 27.3658499,59.080368 C27.1857344,58.3217611 27.6165134,57.560916 28.3398005,57.3144811 L28.4787669,57.2744289 L29.8015583,56.9540133 L34.3970441,55.8089129 C40.5997382,54.3004119 44.4046023,53.676355 49.4166814,53.5263375 C51.9082118,53.4517631 54.4711389,53.538246 57.1398988,53.7999926 L57.2672521,53.684967 L58.3399577,52.7486253 C59.9200427,51.3760438 61.3700755,50.1468893 62.6944823,49.0576117 L62.9419386,48.8547581 C62.0959213,44.5261464 61.1273558,41.2939904 60.1188311,39.1838313 L59.9976217,38.9359995 L59.9976217,49.0000215 C59.9976217,49.8284486 59.3260488,50.5000215 58.4976217,50.5000215 C57.7179255,50.5000215 57.077173,49.9051334 57.0044882,49.1444815 L56.9976217,49.0000215 L56.9976217,35.0000215 C56.9976217,33.9112885 58.1210207,33.1852181 59.1136894,33.6323737 C60.5525975,34.2805412 61.787027,35.7254816 62.8639028,37.9817067 C64.4312482,40.7355274 65.5808891,44.4055647 66.3302281,48.9962885 L66.4704694,49.8554581 L65.0240146,51.0272727 L64.0463205,51.8321797 C63.0443354,52.6638213 61.9693868,53.5757435 60.820659,54.5686372 L59.2452295,55.9405391 C58.2564492,56.8076295 58.1730544,58.2812887 59.0556204,59.2476549 C59.9541613,60.2315127 61.5107053,60.3160918 62.519369,59.4315685 L63.3880352,58.6727386 L64.6987967,57.5396192 L66.0279354,56.4074305 C67.7492596,54.9533956 69.2669022,53.7217693 70.5779986,52.7150467 C71.2462683,52.2019173 71.5866893,51.3900279 71.4809754,50.575255 C69.4557337,34.9660298 63.1549732,27.0441639 52.8564175,27.0441639 C43.2754764,27.0441639 34.6610224,30.5872208 27.1330897,37.6270826 C26.2016539,38.4981291 26.3089879,40.0324036 27.409148,41.273972 L27.952456,41.8914127 C29.5297399,43.6979187 30.677942,45.1487403 32.6033922,47.7736976 L33.9558845,49.63211 C34.6249321,50.5568615 36.277171,50.6616428 37.3260855,49.7803407 C38.1446916,49.0925446 38.1566325,47.7977069 37.3633714,46.1362473 C36.4126056,44.144899 35.4456656,42.5664959 34.3665031,41.21406 L34.094319,40.8805504 L32.4450893,39.2699313 L33.8440018,38.2195354 C33.9366441,38.0667719 34.0575654,37.9294071 34.2059938,37.8143799 C36.9699017,35.6724426 39.8683435,33.9415738 42.8998191,32.6242918 C43.849176,32.2117631 44.9055599,32.8614052 44.9919437,33.8669088 L44.9976217,34.0000215 L44.9976217,50.0000215 C44.9976217,50.8284486 44.3260488,51.5000215 43.4976217,51.5000215 C42.7179255,51.5000215 42.077173,50.9051334 42.0044882,50.1444815 L41.9976217,50.0000215 L41.9965085,36.9236422 C40.4399948,37.5833311 38.9229516,38.3948271 37.4420567,39.3595845 L36.9700067,39.6731293 L37.2732994,40.0769795 C38.27512,41.4415474 39.1874045,42.9937847 40.0706298,44.8436715 C41.3842762,47.5950614 41.359239,50.3100214 39.2559364,52.0772245 C36.9317653,54.0300023 33.2667251,53.7975737 31.5253093,51.3906048 L30.2420107,49.6265834 C28.52272,47.280491 27.4524445,45.9094536 26.1380758,44.3788427 L25.163819,43.2635694 C23.0736241,40.9047128 22.8379793,37.5363121 25.0839905,35.4359202 C33.1569269,27.8863899 42.4987693,24.0441639 52.8564175,24.0441639 Z M63.2567183,65.6595389 C61.9196237,65.9537707 60.8882503,66.6666759 59.353994,68.2853391 L59.2116795,68.4361639 L55.125441,88.7838893 L55.0926876,88.9731815 C54.8272238,90.800379 56.0354104,92.5366937 57.8673568,92.9047991 C59.7624738,93.2855977 61.6074679,92.0580002 61.9882666,90.1628832 L66.856586,65.9305561 C65.4535739,65.5084497 64.2720294,65.4361166 63.2567183,65.6595389 Z M30.0023987,67.9513455 C30.0017134,68.4820045 30.1236784,69.0166066 30.3744936,69.5144289 L38.2917372,85.2287096 L38.3860488,85.403587 C39.3061649,87.0010123 41.3254911,87.6193533 42.99224,86.7796039 C44.7185157,85.9098635 45.4128747,83.8053767 44.5431343,82.0791011 L37.9698349,69.0330538 C34.9026224,66.4376988 32.856903,65.8926447 30.0023987,67.9513455 Z M20.5,60.5 C21.3284271,60.5 22,61.1715729 22,62 C22,62.8284271 21.3284271,63.5 20.5,63.5 L20.5,63.5 L1.5,63.5 C0.671572875,63.5 0,62.8284271 0,62 C0,61.1715729 0.671572875,60.5 1.5,60.5 L1.5,60.5 Z M94.5,60.5 C95.3284271,60.5 96,61.1715729 96,62 C96,62.8284271 95.3284271,63.5 94.5,63.5 L94.5,63.5 L78.5,63.5 C77.6715729,63.5 77,62.8284271 77,62 C77,61.1715729 77.6715729,60.5 78.5,60.5 L78.5,60.5 Z M20.5,50.5 C21.3284271,50.5 22,51.1715729 22,52 C22,52.8284271 21.3284271,53.5 20.5,53.5 L20.5,53.5 L1.5,53.5 C0.671572875,53.5 0,52.8284271 0,52 C0,51.1715729 0.671572875,50.5 1.5,50.5 L1.5,50.5 Z M94.5,50.5 C95.3284271,50.5 96,51.1715729 96,52 C96,52.8284271 95.3284271,53.5 94.5,53.5 L94.5,53.5 L78.5,53.5 C77.6715729,53.5 77,52.8284271 77,52 C77,51.1715729 77.6715729,50.5 78.5,50.5 L78.5,50.5 Z M20.5,40.5 C21.3284271,40.5 22,41.1715729 22,42 C22,42.8284271 21.3284271,43.5 20.5,43.5 L20.5,43.5 L1.5,43.5 C0.671572875,43.5 0,42.8284271 0,42 C0,41.1715729 0.671572875,40.5 1.5,40.5 L1.5,40.5 Z M94.5,40.5 C95.3284271,40.5 96,41.1715729 96,42 C96,42.8284271 95.3284271,43.5 94.5,43.5 L94.5,43.5 L78.5,43.5 C77.6715729,43.5 77,42.8284271 77,42 C77,41.1715729 77.6715729,40.5 78.5,40.5 L78.5,40.5 Z M23.223382,9.60723159 C23.7408354,8.96028998 24.6847641,8.85531908 25.3317057,9.37277251 C25.9786473,9.89022594 26.0836182,10.8341546 25.5661648,11.4810962 C23.1875396,14.4549515 23.0655331,15.7365716 24.1716753,17.8481031 L24.1716753,17.8481031 L24.5966043,18.6338927 C26.193168,21.5683899 26.5760178,23.6818463 25.3932531,27.0421822 C25.1182052,27.8236169 24.2617568,28.2341245 23.4803221,27.9590766 C22.6988875,27.6840286 22.2883799,26.8275803 22.5634278,26.0461456 C23.4215984,23.6080093 23.1890035,22.3240086 21.9613822,20.0676307 L21.9613822,20.0676307 L21.6131822,19.4270842 L21.3990521,19.0151504 C19.8694764,15.9524028 20.1746053,13.4189379 23.223382,9.60723159 Z M93.223382,9.60723159 C93.7408354,8.96028998 94.6847641,8.85531908 95.3317057,9.37277251 C95.9786473,9.89022594 96.0836182,10.8341546 95.5661648,11.4810962 C93.1875396,14.4549515 93.0655331,15.7365716 94.1716753,17.8481031 L94.1716753,17.8481031 L94.5966043,18.6338927 C96.193168,21.5683899 96.5760178,23.6818463 95.3932531,27.0421822 C95.1182052,27.8236169 94.2617568,28.2341245 93.4803221,27.9590766 C92.6988875,27.6840286 92.2883799,26.8275803 92.5634278,26.0461456 C93.4215984,23.6080093 93.1890035,22.3240086 91.9613822,20.0676307 L91.9613822,20.0676307 L91.6131822,19.4270842 L91.3990521,19.0151504 C89.8694764,15.9524028 90.1746053,13.4189379 93.223382,9.60723159 Z M12.973382,9.60723159 C13.4908354,8.96028998 14.4347641,8.85531908 15.0817057,9.37277251 C15.7286473,9.89022594 15.8336182,10.8341546 15.3161648,11.4810962 C12.9375396,14.4549515 12.8155331,15.7365716 13.9216753,17.8481031 L13.9216753,17.8481031 L14.5074221,18.9346174 C15.9677098,21.7156281 16.2852328,23.79772 15.1432531,27.0421822 C14.8682052,27.8236169 14.0117568,28.2341245 13.2303221,27.9590766 C12.4488875,27.6840286 12.0383799,26.8275803 12.3134278,26.0461456 C13.1715984,23.6080093 12.9390035,22.3240086 11.7113822,20.0676307 L11.7113822,20.0676307 L11.3126055,19.3320621 L11.1490521,19.0151504 C9.61947643,15.9524028 9.92460528,13.4189379 12.973382,9.60723159 Z M82.973382,9.60723159 C83.4908354,8.96028998 84.4347641,8.85531908 85.0817057,9.37277251 C85.7286473,9.89022594 85.8336182,10.8341546 85.3161648,11.4810962 C82.9375396,14.4549515 82.8155331,15.7365716 83.9216753,17.8481031 L83.9216753,17.8481031 L84.5074221,18.9346174 C85.9677098,21.7156281 86.2852328,23.79772 85.1432531,27.0421822 C84.8682052,27.8236169 84.0117568,28.2341245 83.2303221,27.9590766 C82.4488875,27.6840286 82.0383799,26.8275803 82.3134278,26.0461456 C83.1715984,23.6080093 82.9390035,22.3240086 81.7113822,20.0676307 L81.7113822,20.0676307 L81.3126055,19.3320621 L81.1490521,19.0151504 C79.6194764,15.9524028 79.9246053,13.4189379 82.973382,9.60723159 Z M2.72338197,9.60723159 C3.24083541,8.96028998 4.18476409,8.85531908 4.8317057,9.37277251 C5.47864731,9.89022594 5.58361822,10.8341546 5.06616478,11.4810962 C2.68753959,14.4549515 2.56553306,15.7365716 3.67167527,17.8481031 L3.67167527,17.8481031 L4.09660427,18.6338927 C5.693168,21.5683899 6.07601779,23.6818463 4.89325308,27.0421822 C4.61820517,27.8236169 3.76175682,28.2341245 2.98032215,27.9590766 C2.19888747,27.6840286 1.78837989,26.8275803 2.0634278,26.0461456 C2.92159845,23.6080093 2.68900346,22.3240086 1.46138219,20.0676307 L1.46138219,20.0676307 L1.11318221,19.4270842 L0.899052074,19.0151504 C-0.630523572,15.9524028 -0.325394725,13.4189379 2.72338197,9.60723159 Z M72.723382,9.60723159 C73.2408354,8.96028998 74.1847641,8.85531908 74.8317057,9.37277251 C75.4786473,9.89022594 75.5836182,10.8341546 75.0661648,11.4810962 C72.6875396,14.4549515 72.5655331,15.7365716 73.6716753,17.8481031 L73.6716753,17.8481031 L74.0966043,18.6338927 C75.693168,21.5683899 76.0760178,23.6818463 74.8932531,27.0421822 C74.6182052,27.8236169 73.7617568,28.2341245 72.9803221,27.9590766 C72.1988875,27.6840286 71.7883799,26.8275803 72.0634278,26.0461456 C72.9215984,23.6080093 72.6890035,22.3240086 71.4613822,20.0676307 L71.4613822,20.0676307 L71.1131822,19.4270842 L70.8990521,19.0151504 C69.3694764,15.9524028 69.6746053,13.4189379 72.723382,9.60723159 Z M49.9346414,1 C56.0097737,1 60.9346414,5.92486775 60.9346414,12 C60.9346414,18.0751322 56.0097737,23 49.9346414,23 C43.8595092,23 38.9346414,18.0751322 38.9346414,12 C38.9346414,5.92486775 43.8595092,1 49.9346414,1 Z M49.9346414,4 C45.5163634,4 41.9346414,7.581722 41.9346414,12 C41.9346414,16.418278 45.5163634,20 49.9346414,20 C54.3529194,20 57.9346414,16.418278 57.9346414,12 C57.9346414,7.581722 54.3529194,4 49.9346414,4 Z" id="Color" fill="#000000"></path>
    </g>
</svg>