<?xml version="1.0" encoding="utf-8"?>
<!-- Generator: Adobe Illustrator 22.0.1, SVG Export Plug-In . SVG Version: 6.00 Build 0)  -->
<svg version="1.1" id="Layer_1" xmlns="http://www.w3.org/2000/svg" xmlns:xlink="http://www.w3.org/1999/xlink" x="0px" y="0px"
	 viewBox="0 0 265 225" style="enable-background:new 0 0 265 225;" xml:space="preserve">
<g>
	<path d="M246,11H19C9.1,11,1,19.1,1,29v168c0,9.9,8.1,18,18,18h227c9.9,0,18-8.1,18-18V29C264,19.1,255.9,11,246,11z M257,197
		c0,6.1-4.9,11-11,11H19c-6.1,0-11-4.9-11-11V29c0-6.1,4.9-11,11-11h227c6.1,0,11,4.9,11,11V197z"/>
	<path d="M104.5,33C60,33,24,69,24,113.5S60,194,104.5,194s80.5-36,80.5-80.5S149,33,104.5,33z M104.5,187C64,187,31,154,31,113.5
		C31,73,64,40,104.5,40C145,40,178,73,178,113.5C178,154,145,187,104.5,187z"/>
	<path d="M124.2,113.2c0-11-9-20-20-20s-20,9-20,20c0,11,9,20,20,20S124.2,124.3,124.2,113.2z M91.2,113.2c0-7.2,5.8-13,13-13
		s13,5.8,13,13s-5.8,13-13,13S91.2,120.4,91.2,113.2z"/>
	<path d="M129.1,64.1c1.7,0.9,3.8,0.1,4.7-1.6c0.9-1.7,0.1-3.8-1.6-4.7c-8.5-4.2-17.6-6.3-27.1-6.3c-25.7,0-48.9,16.2-57.8,40.4
		c-0.7,1.8,0.3,3.8,2.1,4.5c0.4,0.1,0.8,0.2,1.2,0.2c1.4,0,2.8-0.9,3.3-2.3c7.8-21.4,28.4-35.8,51.2-35.8
		C113.4,58.5,121.5,60.4,129.1,64.1z"/>
	<path d="M155.6,133.1c-8.3,20.9-28.2,34.4-50.6,34.4c-7.9,0-15.5-1.7-22.7-5c-1.8-0.8-3.8,0-4.6,1.7c-0.8,1.8,0,3.8,1.7,4.6
		c8.1,3.7,16.7,5.6,25.6,5.6c25.3,0,47.8-15.2,57.1-38.8c0.7-1.8-0.2-3.8-2-4.5C158.4,130.5,156.4,131.3,155.6,133.1z"/>
	<path d="M99.7,155.8c1.4,0.1,2.9,0.2,4.3,0.2c9.8,0,19.3-3.4,26.9-9.5c1.5-1.2,1.7-3.4,0.5-4.9c-1.2-1.5-3.4-1.7-4.9-0.5
		c-7.4,5.9-16.5,8.7-26.1,7.8c-1.9-0.2-3.6,1.2-3.8,3.1S97.8,155.6,99.7,155.8z"/>
	<path d="M80.4,85.8C87,80.1,95.3,77,104,77c1.6,0,3.3,0.1,4.9,0.3c1.9,0.3,3.7-1.1,3.9-3c0.3-1.9-1.1-3.7-3-3.9
		c-2-0.3-4-0.4-5.9-0.4c-10.4,0-20.4,3.7-28.2,10.5c-1.5,1.3-1.6,3.5-0.3,4.9c0.7,0.8,1.7,1.2,2.6,1.2
		C78.9,86.7,79.7,86.4,80.4,85.8z"/>
	<path d="M110.8,113.2c0-3.6-2.9-6.5-6.5-6.5s-6.5,2.9-6.5,6.5s2.9,6.5,6.5,6.5S110.8,116.8,110.8,113.2z M103.8,113.2
		c0-0.3,0.2-0.5,0.5-0.5s0.5,0.2,0.5,0.5s-0.2,0.5-0.5,0.5S103.8,113.5,103.8,113.2z"/>
	<path d="M238.5,185c-3.6,0-6.5,2.9-6.5,6.5s2.9,6.5,6.5,6.5s6.5-2.9,6.5-6.5S242.1,185,238.5,185z M238.5,192
		c-0.3,0-0.5-0.2-0.5-0.5s0.2-0.5,0.5-0.5s0.5,0.2,0.5,0.5S238.8,192,238.5,192z"/>
	<path d="M232,35c-8.3,0-15,6.7-15,15c0,6.8,4.7,12.7,11,14.4v90.7l-7.9,8.7c-1.3-0.5-2.6-0.8-4-0.8c-2.8,0-5.4,1.1-7.4,3.1l-12,12
		c-2,2-3.1,4.6-3.1,7.4c0,2.8,1.1,5.4,3.1,7.4c2,2,4.6,3.1,7.4,3.1c2.8,0,5.4-1.1,7.4-3.1l12-12c2-2,3.1-4.6,3.1-7.4
		c0-1.8-0.4-3.5-1.3-5l8.8-9.6c0.6-0.6,0.9-1.5,0.9-2.4V64.7c2.7-0.6,5.3-1.9,7.3-3.9c3-2.8,4.7-6.8,4.7-10.8
		C247,41.7,240.3,35,232,35z M218.5,176l-12,12c-1.3,1.3-3.6,1.3-4.9,0c-0.7-0.7-1-1.5-1-2.5c0-0.9,0.4-1.8,1-2.5l12-12
		c0.7-0.7,1.5-1,2.5-1c0.5,0,1.1,0.1,1.5,0.4c0.2,0.3,0.3,0.5,0.6,0.7c0.3,0.2,0.5,0.4,0.8,0.5c0.3,0.6,0.5,1.2,0.5,1.9
		C219.5,174.4,219.1,175.3,218.5,176z M237.5,55.7c-1.6,1.5-3.7,2.3-5.9,2.3c-4.2-0.2-7.7-3.8-7.6-8c0-4.3,3.7-8,8-8
		c4.3,0,8,3.7,8,8C240,52.2,239.1,54.2,237.5,55.7z"/>
</g>
</svg>
