<?xml version="1.0" encoding="UTF-8"?>
<svg width="96px" height="96px" viewBox="0 0 96 96" version="1.1" xmlns="http://www.w3.org/2000/svg" xmlns:xlink="http://www.w3.org/1999/xlink">
    <!-- Generator: Sketch 59.1 (86144) - https://sketch.com -->
    <title>Icons/OrganizeEvent/96</title>
    <desc>Created with Sketch.</desc>
    <g id="Icons/OrganizeEvent/96" stroke="none" stroke-width="1" fill="none" fill-rule="evenodd">
        <rect id="Bounding-box" x="0" y="0" width="96" height="96"></rect>
        <path d="M86.5,6.35 L88.5,6.35074627 C92.6421356,6.35074627 96,9.70861064 96,13.8507463 L96,68.4640509 C96,70.3728983 95.2721611,72.2099197 93.9647965,73.6007813 L76.6819032,91.9874766 C75.2644071,93.4955036 73.286754,94.3507463 71.2171066,94.3507463 L7.5,94.3507463 C3.35786438,94.3507463 0,90.9928819 0,86.8507463 L0,13.8507463 C0,9.70861064 3.35786438,6.35074627 7.5,6.35074627 L10.5,6.35 L10.5,9.35 L7.5,9.35074627 C5.01471863,9.35074627 3,11.3654649 3,13.8507463 L3,19.317 L93,19.3177326 L93,13.8507463 C93,11.3654649 90.9852814,9.35074627 88.5,9.35074627 L86.5,9.35 L86.5,6.35 Z M93,22.3177326 L3,22.317 L3,86.8507463 C3,89.3360276 5.01471863,91.3507463 7.5,91.3507463 L71.2171066,91.3507463 C71.8370728,91.3507463 72.4432809,91.2228431 73.0007762,90.9821531 L73,74 C73,70.6862915 75.6862915,68 79,68 L93,68 L93,22.3177326 Z M59,66.2014925 C59.8284271,66.2014925 60.5,66.8730654 60.5,67.7014925 L60.5,67.7014925 L60.5,78.7014925 C60.5,81.7390587 58.0375661,84.2014925 55,84.2014925 L55,84.2014925 L44,84.2014925 C43.1715729,84.2014925 42.5,83.5299197 42.5,82.7014925 C42.5,81.8730654 43.1715729,81.2014925 44,81.2014925 L44,81.2014925 L55,81.2014925 C56.3807119,81.2014925 57.5,80.0822044 57.5,78.7014925 L57.5,78.7014925 L57.5,67.7014925 C57.5,66.8730654 58.1715729,66.2014925 59,66.2014925 Z M29,66.2014925 C29.8284271,66.2014925 30.5,66.8730654 30.5,67.7014925 L30.5,67.7014925 L30.5,78.7014925 C30.5,81.7390587 28.0375661,84.2014925 25,84.2014925 L25,84.2014925 L14,84.2014925 C13.1715729,84.2014925 12.5,83.5299197 12.5,82.7014925 C12.5,81.8730654 13.1715729,81.2014925 14,81.2014925 L14,81.2014925 L25,81.2014925 C26.3807119,81.2014925 27.5,80.0822044 27.5,78.7014925 L27.5,78.7014925 L27.5,67.7014925 C27.5,66.8730654 28.1715729,66.2014925 29,66.2014925 Z M82.5,61.3507463 C83.3284271,61.3507463 84,62.0223191 84,62.8507463 C84,63.6791734 83.3284271,64.3507463 82.5,64.3507463 L82.5,64.3507463 L71.5,64.3507463 C70.1192881,64.3507463 69,65.4700344 69,66.8507463 L69,66.8507463 L69,77.8507463 C69,78.6791734 68.3284271,79.3507463 67.5,79.3507463 C66.6715729,79.3507463 66,78.6791734 66,77.8507463 L66,77.8507463 L66,66.8507463 C66,63.8131801 68.4624339,61.3507463 71.5,61.3507463 L71.5,61.3507463 Z M23.5,61.3507463 C24.3284271,61.3507463 25,62.0223191 25,62.8507463 C25,63.6791734 24.3284271,64.3507463 23.5,64.3507463 L23.5,64.3507463 L12.5,64.3507463 C11.1192881,64.3507463 10,65.4700344 10,66.8507463 L10,66.8507463 L10,77.8507463 C10,78.6791734 9.32842712,79.3507463 8.5,79.3507463 C7.67157288,79.3507463 7,78.6791734 7,77.8507463 L7,77.8507463 L7,66.8507463 C7,63.8131801 9.46243388,61.3507463 12.5,61.3507463 L12.5,61.3507463 Z M53.5,61.3507463 C54.3284271,61.3507463 55,62.0223191 55,62.8507463 C55,63.6791734 54.3284271,64.3507463 53.5,64.3507463 L53.5,64.3507463 L42.5,64.3507463 C41.1192881,64.3507463 40,65.4700344 40,66.8507463 L40,66.8507463 L40,77.8507463 C40,78.6791734 39.3284271,79.3507463 38.5,79.3507463 C37.6715729,79.3507463 37,78.6791734 37,77.8507463 L37,77.8507463 L37,66.8507463 C37,63.8131801 39.4624339,61.3507463 42.5,61.3507463 L42.5,61.3507463 Z M47.5,27.8507463 C54.4035594,27.8507463 60,33.4471869 60,40.3507463 C60,47.2543056 54.4035594,52.8507463 47.5,52.8507463 C40.5964406,52.8507463 35,47.2543056 35,40.3507463 C35,33.4471869 40.5964406,27.8507463 47.5,27.8507463 Z M88,33.2014925 C88.8284271,33.2014925 89.5,33.8730654 89.5,34.7014925 L89.5,34.7014925 L89.5,45.7014925 C89.5,48.7390587 87.0375661,51.2014925 84,51.2014925 L84,51.2014925 L73,51.2014925 C72.1715729,51.2014925 71.5,50.5299197 71.5,49.7014925 C71.5,48.8730654 72.1715729,48.2014925 73,48.2014925 L73,48.2014925 L84,48.2014925 C85.3807119,48.2014925 86.5,47.0822044 86.5,45.7014925 L86.5,45.7014925 L86.5,34.7014925 C86.5,33.8730654 87.1715729,33.2014925 88,33.2014925 Z M29,33.2014925 C29.8284271,33.2014925 30.5,33.8730654 30.5,34.7014925 L30.5,34.7014925 L30.5,45.7014925 C30.5,48.7390587 28.0375661,51.2014925 25,51.2014925 L25,51.2014925 L14,51.2014925 C13.1715729,51.2014925 12.5,50.5299197 12.5,49.7014925 C12.5,48.8730654 13.1715729,48.2014925 14,48.2014925 L14,48.2014925 L25,48.2014925 C26.3807119,48.2014925 27.5,47.0822044 27.5,45.7014925 L27.5,45.7014925 L27.5,34.7014925 C27.5,33.8730654 28.1715729,33.2014925 29,33.2014925 Z M82.5,28.3507463 C83.3284271,28.3507463 84,29.0223191 84,29.8507463 C84,30.6791734 83.3284271,31.3507463 82.5,31.3507463 L82.5,31.3507463 L71.5,31.3507463 C70.1192881,31.3507463 69,32.4700344 69,33.8507463 L69,33.8507463 L69,44.8507463 C69,45.6791734 68.3284271,46.3507463 67.5,46.3507463 C66.6715729,46.3507463 66,45.6791734 66,44.8507463 L66,44.8507463 L66,33.8507463 C66,30.8131801 68.4624339,28.3507463 71.5,28.3507463 L71.5,28.3507463 Z M23.5,28.3507463 C24.3284271,28.3507463 25,29.0223191 25,29.8507463 C25,30.6791734 24.3284271,31.3507463 23.5,31.3507463 L23.5,31.3507463 L12.5,31.3507463 C11.1192881,31.3507463 10,32.4700344 10,33.8507463 L10,33.8507463 L10,44.8507463 C10,45.6791734 9.32842712,46.3507463 8.5,46.3507463 C7.67157288,46.3507463 7,45.6791734 7,44.8507463 L7,44.8507463 L7,33.8507463 C7,30.8131801 9.46243388,28.3507463 12.5,28.3507463 L12.5,28.3507463 Z M53.2989081,36.1376753 L45.8633094,43.4483613 L41.7010919,39.3560661 L40.2989081,40.782208 L45.8633094,46.2531312 L54.7010919,37.5638172 L53.2989081,36.1376753 Z M48.5,1 C49.6045695,1 50.5,1.8954305 50.5,3 L50.5,3 L50.5,13 C50.5,14.1045695 49.6045695,15 48.5,15 C47.3954305,15 46.5,14.1045695 46.5,13 L46.5,13 L46.5,3 C46.5,1.8954305 47.3954305,1 48.5,1 Z M66.5,1 C67.6045695,1 68.5,1.8954305 68.5,3 L68.5,3 L68.5,13 C68.5,14.1045695 67.6045695,15 66.5,15 C65.3954305,15 64.5,14.1045695 64.5,13 L64.5,13 L64.5,3 C64.5,1.8954305 65.3954305,1 66.5,1 Z M82.5,1 C83.6045695,1 84.5,1.8954305 84.5,3 L84.5,3 L84.5,13 C84.5,14.1045695 83.6045695,15 82.5,15 C81.3954305,15 80.5,14.1045695 80.5,13 L80.5,13 L80.5,3 C80.5,1.8954305 81.3954305,1 82.5,1 Z M14.5,1 C15.6045695,1 16.5,1.8954305 16.5,3 L16.5,3 L16.5,13 C16.5,14.1045695 15.6045695,15 14.5,15 C13.3954305,15 12.5,14.1045695 12.5,13 L12.5,13 L12.5,3 C12.5,1.8954305 13.3954305,1 14.5,1 Z M32.5,1 C33.6045695,1 34.5,1.8954305 34.5,3 L34.5,3 L34.5,13 C34.5,14.1045695 33.6045695,15 32.5,15 C31.3954305,15 30.5,14.1045695 30.5,13 L30.5,13 L30.5,3 C30.5,1.8954305 31.3954305,1 32.5,1 Z M78.5,6.35 L78.5,9.35 L70.5,9.35 L70.5,6.35 L78.5,6.35 Z M62.5,6.35 L62.5,9.35 L52.5,9.35 L52.5,6.35 L62.5,6.35 Z M44.5,6.35 L44.5,9.35 L36.5,9.35 L36.5,6.35 L44.5,6.35 Z M28.5,6.35 L28.5,9.35 L18.5,9.35 L18.5,6.35 L28.5,6.35 Z" id="Color" fill="#000000"></path>
    </g>
</svg>