<?xml version="1.0" encoding="UTF-8"?>
<svg width="96px" height="96px" viewBox="0 0 96 96" version="1.1" xmlns="http://www.w3.org/2000/svg" xmlns:xlink="http://www.w3.org/1999/xlink">
    <!-- Generator: Sketch 59.1 (86144) - https://sketch.com -->
    <title>Icons/GuidanceAndTutoring/96</title>
    <desc>Created with Sketch.</desc>
    <g id="Icons/GuidanceAndTutoring/96" stroke="none" stroke-width="1" fill="none" fill-rule="evenodd">
        <rect id="Bounding-box" x="0" y="0" width="96" height="96"></rect>
        <path d="M39.3783751,41.7861027 L39.4798459,41.8566959 L39.5732171,41.9408187 L39.6634445,42.0451845 L41.6855812,44.6366824 L42.6570067,44.0423234 C43.1128999,43.7633887 43.6987152,43.8952857 43.9957646,44.3176278 L44.0589979,44.4201925 L44.1100642,44.5284655 L48.6774768,55.3741148 L61.2674804,60.8352953 C61.855559,61.0903869 62.0445856,61.8158707 61.6945384,62.3195003 L61.6172998,62.417063 L61.5352578,62.4998983 L50.1548507,73.1019205 C49.911742,73.3284158 49.5747323,73.417212 49.2567311,73.3466342 L49.1385922,73.3126546 L49.0213987,73.2634575 L47.4012026,72.4924918 C47.2669114,74.5347021 46.0906092,76.4560769 44.1342418,77.4517281 L29.953411,84.6687581 C27.2745644,86.0320997 24.0002905,85.2028364 22.2933425,82.7287208 L21.599257,81.7226868 L21.599257,88.7693051 C21.599257,93.6559562 16.0702099,96.4931359 12.1004271,93.6435424 L3.34822784,87.3610298 C1.77810683,86.2339639 0.847057813,84.4195516 0.847057813,82.4867925 L0.847057813,62.9881501 C0.847057813,59.6744416 3.53334931,56.9881501 6.84705781,56.9881501 L15.9633062,56.9881501 C17.9356,56.9881501 19.7819356,57.9574431 20.9019659,59.5808578 L21.3950578,60.2971622 L26.5320578,57.6881622 L22.449554,53.0492022 C22.0931571,52.6442092 22.1268635,52.0379596 22.4996812,51.6742734 L22.5917126,51.5948537 L22.6914959,51.5267027 L38.3308225,41.7922128 C38.6575284,41.5888455 39.0632082,41.5948151 39.3783751,41.7861027 Z M15.9633062,59.9881501 L6.84705781,59.9881501 C5.19020356,59.9881501 3.84705781,61.3312959 3.84705781,62.9881501 L3.84705781,82.4867925 C3.84705781,83.453172 4.31258232,84.3603782 5.09764283,84.9239112 L13.8498421,91.2064238 C15.8347335,92.6312205 18.599257,91.2126307 18.599257,88.7693051 L18.599257,72.0915851 L24.7626723,81.0250747 C25.6161463,82.2621325 27.2532833,82.6767641 28.5927066,81.9950933 L42.7735374,74.7780633 C44.2501617,74.026567 44.8379941,72.2203184 44.0864978,70.7436941 C43.3350015,69.2670698 41.5287529,68.6792374 40.0521286,69.4307337 L28.2106855,75.4571824 L18.432636,61.284504 C17.8726209,60.4727966 16.9494531,59.9881501 15.9633062,59.9881501 Z M96,68.5 L96,79.5 L62,79.5 L62,68.5 L96,68.5 Z M93,71.5 L65,71.5 L65,76.5 L93,76.5 L93,71.5 Z M32.6930578,64.6881622 L26.6690578,67.9401622 L29.1893689,71.5929363 L37.0580578,67.5871622 L34.1466162,66.2052924 C34.0687807,66.1697858 33.9985968,66.1272786 33.9354139,66.0776651 L33.8458088,65.9979019 L32.6930578,64.6881622 Z M48.0210694,57.2694369 L36.5548675,65.1342243 L39.3613143,66.4653766 C42.1712319,65.4391184 45.3691441,66.6497604 46.7601626,69.3829897 C46.8842629,69.6268359 46.9901012,69.8751766 47.0781847,70.1264532 L49.2883532,71.1757114 L59.0702732,62.0622629 L48.0210694,57.2694369 Z M27.8970578,59.2381622 L22.5420578,61.9581622 L25.5260578,66.2841622 L31.3370578,63.1471622 L27.8970578,59.2381622 Z M62.855049,38.9048247 L63.0855496,39.1085171 L67.4831772,43.1973286 L72.7665173,39.8172279 C73.6341716,39.2621323 74.629701,38.9400126 75.6999018,38.8793623 L76,38.8713935 L88.5,38.8713935 C91.70871,38.8713935 94.3454569,41.3956134 94.4947012,44.6248846 L94.5,44.8713935 L94.5,65.5 L71.5000024,65.5 L71.4999857,54.8727156 L70.0349769,55.8104492 C67.8219813,57.2262483 64.9478213,57.0362678 62.9137476,55.3259293 L62.7159447,55.150403 L54.9144504,47.8967558 C52.4876453,45.6403691 52.3494939,41.843892 54.6058807,39.4170869 C56.7841128,37.0743392 60.4139738,36.8554943 62.855049,38.9048247 Z M42.7087545,46.355316 L42.1493627,46.6975755 L41.9766899,46.8221812 L41.9077984,46.8601354 L41.8315639,46.8949171 L30.7177837,53.6918968 L34.9986672,63.776377 L46.6734403,55.7685284 L42.7087545,46.355316 Z M56.8029403,41.4598617 C55.674747,42.6732642 55.7438227,44.5715028 56.9572252,45.6996961 L64.7309417,52.9281562 L64.87251,53.0539614 C65.8745019,53.8961773 67.3118626,53.9911861 68.4179474,53.2835509 L74.4999771,49.3905201 L74.4999976,62.5 L91.5000315,62.5 L91.5004008,44.9060667 L91.49671,44.7289949 C91.4227889,43.1338429 90.1040608,41.8713935 88.5,41.8713935 L76.0428785,41.8707805 L75.8285086,41.8762975 C75.3148563,41.9057019 74.8170834,42.0667644 74.3832586,42.3443107 L67.1423357,46.9768061 L61.0708693,41.3310439 L60.9129752,41.1915106 L60.7639951,41.0755289 C59.5509295,40.1907774 57.8445354,40.3395979 56.8029403,41.4598617 Z M38.6243303,43.9653368 L24.7306081,52.6138786 L31.215757,59.983303 L28.5398529,53.6796739 L28.4985465,53.5628336 C28.3974738,53.208589 28.5003935,52.8265607 28.7634519,52.571466 L28.8570089,52.491348 L28.9588581,52.4227352 L39.9684817,45.6872762 L38.6243303,43.9653368 Z M11.5,35.5 C17.0228475,35.5 21.5,39.9771525 21.5,45.5 C21.5,51.0228475 17.0228475,55.5 11.5,55.5 C5.9771525,55.5 1.5,51.0228475 1.5,45.5 C1.5,39.9771525 5.9771525,35.5 11.5,35.5 Z M11.5,38.5 C7.63400675,38.5 4.5,41.6340068 4.5,45.5 C4.5,49.3659932 7.63400675,52.5 11.5,52.5 C15.3659932,52.5 18.5,49.3659932 18.5,45.5 C18.5,41.6340068 15.3659932,38.5 11.5,38.5 Z M82,18.5 C87.5228475,18.5 92,22.9771525 92,28.5 C92,34.0228475 87.5228475,38.5 82,38.5 C76.4771525,38.5 72,34.0228475 72,28.5 C72,22.9771525 76.4771525,18.5 82,18.5 Z M82,21.5 C78.1340068,21.5 75,24.6340068 75,28.5 C75,32.3659932 78.1340068,35.5 82,35.5 C85.8659932,35.5 89,32.3659932 89,28.5 C89,24.6340068 85.8659932,21.5 82,21.5 Z M13.376,14.102 C14.258,14.102 14.96,14.732 14.96,15.668 C14.96,16.586 14.258,17.216 13.376,17.216 C12.512,17.216 11.81,16.586 11.81,15.668 C11.81,14.732 12.512,14.102 13.376,14.102 Z M17.876,14.102 C18.758,14.102 19.46,14.732 19.46,15.668 C19.46,16.586 18.758,17.216 17.876,17.216 C17.012,17.216 16.31,16.586 16.31,15.668 C16.31,14.732 17.012,14.102 17.876,14.102 Z M22.376,14.102 C23.258,14.102 23.96,14.732 23.96,15.668 C23.96,16.586 23.258,17.216 22.376,17.216 C21.512,17.216 20.81,16.586 20.81,15.668 C20.81,14.732 21.512,14.102 22.376,14.102 Z M37.46,14.102 C38.342,14.102 39.044,14.732 39.044,15.668 C39.044,16.586 38.342,17.216 37.46,17.216 C36.596,17.216 35.894,16.586 35.894,15.668 C35.894,14.732 36.596,14.102 37.46,14.102 Z M41.96,14.102 C42.842,14.102 43.544,14.732 43.544,15.668 C43.544,16.586 42.842,17.216 41.96,17.216 C41.096,17.216 40.394,16.586 40.394,15.668 C40.394,14.732 41.096,14.102 41.96,14.102 Z M46.46,14.102 C47.342,14.102 48.044,14.732 48.044,15.668 C48.044,16.586 47.342,17.216 46.46,17.216 C45.596,17.216 44.894,16.586 44.894,15.668 C44.894,14.732 45.596,14.102 46.46,14.102 Z M57.944,4.544 L57.944,6.398 L55.604,8.252 C55.1963529,8.57811765 54.6078339,8.94191696 54.2431883,9.15809281 L54.2431883,9.15809281 L53.912,9.35 L53.948,9.404 C53.948,9.404 54.272,9.332 54.56,9.332 C56.648,9.332 58.286,10.754 58.286,13.076 C58.286,15.524 56.414,17.216 53.93,17.216 C51.59,17.216 49.934,15.902 49.43,14.246 L49.43,14.246 L51.86,12.914 C52.022,14.102 52.67,14.984 53.894,14.984 C55.064,14.984 55.748,14.138 55.748,12.968 C55.748,11.816 54.992,10.988 53.822,10.988 C52.976,10.988 52.364,11.348 51.842,11.69 L51.842,11.69 L50.96,9.548 L54.326,6.794 L49.916,6.794 L49.916,4.544 L57.944,4.544 Z M61.346,14.102 C62.228,14.102 62.93,14.732 62.93,15.668 C62.93,16.586 62.228,17.216 61.346,17.216 C60.482,17.216 59.78,16.586 59.78,15.668 C59.78,14.732 60.482,14.102 61.346,14.102 Z M66.404,14.102 C67.286,14.102 67.988,14.732 67.988,15.668 C67.988,16.586 67.286,17.216 66.404,17.216 C65.54,17.216 64.838,16.586 64.838,15.668 C64.838,14.732 65.54,14.102 66.404,14.102 Z M71.462,14.102 C72.344,14.102 73.046,14.732 73.046,15.668 C73.046,16.586 72.344,17.216 71.462,17.216 C70.598,17.216 69.896,16.586 69.896,15.668 C69.896,14.732 70.598,14.102 71.462,14.102 Z M6.446,4.544 L6.446,17 L3.872,17 L3.87271809,9.4092758 C3.87600081,9.04161124 3.89005496,8.66389334 3.90482719,8.35529208 L3.90482719,8.35529208 L3.944,7.676 L3.89,7.676 C3.458,8.216 2.576,8.756 1.82,8.936 L1.82,8.936 L0.758,6.722 C2.252,6.362 3.674,5.552 4.502,4.544 L4.502,4.544 L6.446,4.544 Z M29.882,4.328 C32.24,4.328 34.094,5.786 34.094,8.144 C34.094,11.852 29.522,13.562 29.072,14.66 L29.072,14.66 L29.072,14.696 L34.076,14.696 L34.076,17 L25.904,17 C25.904,17 25.85,16.712 25.85,16.352 C25.85,12.716 31.502,11.258 31.502,8.306 C31.502,7.262 30.872,6.56 29.846,6.56 C28.712,6.56 28.028,7.424 28.028,8.774 C28.028,9.602 28.226,10.232 28.352,10.646 L28.352,10.646 L25.724,9.458 C25.724,9.458 25.544,8.918 25.544,8.234 C25.544,5.804 27.488,4.328 29.882,4.328 Z M20.8744714,78.2351612 L16.2036557,71.0873978" id="Color" fill="#000000"></path>
    </g>
</svg>