<?xml version="1.0" encoding="utf-8"?>
<!-- Generator: Adobe Illustrator 22.0.1, SVG Export Plug-In . SVG Version: 6.00 Build 0)  -->
<svg version="1.1" id="Layer_1" xmlns="http://www.w3.org/2000/svg" xmlns:xlink="http://www.w3.org/1999/xlink" x="0px" y="0px"
	 viewBox="0 0 265 225" style="enable-background:new 0 0 265 225;" xml:space="preserve">
<g>
	<path d="M226.4,15.7c-24.3-24.3-68.2-19.8-98,10c-27,27-33.5,65.5-15.9,90.9l-30.1,30.1l-0.4-0.4c-1.1-1.1-3.1-1.1-4.2,0
		l-12.5,12.5l-7.5,7.5c0,0,0,0,0,0l-37.5,37.5c-1.2,1.2-1.2,3.1,0,4.2l15,15c0.6,0.6,1.4,0.9,2.1,0.9s1.5-0.3,2.1-0.9l37.5-37.5
		l7.5-7.5c0,0,0,0,0,0L97,165.6c0.6-0.6,0.9-1.3,0.9-2.1c0-0.8-0.3-1.6-0.9-2.1l-0.4-0.4l30.4-30.4c25.3,16.3,63.3,9.3,89.4-16.9
		C246.2,83.9,250.6,39.9,226.4,15.7z M37.3,216.8L26.6,206l33.3-33.3l10.8,10.8L37.3,216.8z M74.8,179.2l-10.8-10.8l3.3-3.3
		L78.1,176L74.8,179.2z M82.3,171.7L71.6,161l8.3-8.3l10.8,10.8L82.3,171.7z M212.1,109.5c-15.6,15.6-35.5,23.9-53.9,23.9
		c-10.9,0-21.3-2.9-29.9-9.1c-1.2-0.9-2.8-0.7-3.9,0.3l-32.1,32.1l-5.8-5.8l31.9-31.9c1.1-1.1,1.2-2.8,0.3-4
		C101,92.1,107,55.5,132.6,29.9C160,2.5,200.2-2,222.1,19.9C244.1,41.9,239.6,82,212.1,109.5z"/>
	<path d="M229.1,40.1c0.1-0.9-0.2-1.8-0.8-2.5c0,0-0.1,0-0.1-0.1c-2.1-5.3-5.2-10.2-9.3-14.3c-0.2-0.2-0.3-0.3-0.5-0.5
		c0-0.1-0.1-0.1-0.1-0.2c-0.1-0.1-0.2-0.2-0.3-0.3c-15.7-14.8-41.2-15.3-63.6-3c-1-0.2-2.1,0-2.9,0.8c-0.4,0.4-0.6,0.8-0.8,1.3
		c-5.2,3.2-10.2,7.2-14.9,11.8c-0.2,0.2-0.3,0.4-0.5,0.5c0,0-0.1,0.1-0.1,0.1c-0.1,0.1-0.1,0.1-0.1,0.2
		c-24.6,25.2-29,61.2-10.1,81.3c0.1,0.1,0.2,0.2,0.3,0.3c0.1,0.1,0.1,0.1,0.2,0.1c0.2,0.2,0.3,0.3,0.5,0.5c4.1,4.1,9,7.2,14.3,9.3
		c0,0,0,0,0.1,0.1c0.6,0.6,1.4,0.9,2.1,0.9c0.1,0,0.2,0,0.4,0c4.9,1.6,10.1,2.4,15.6,2.4c10.5,0,21.6-3,32.1-8.7
		c0.2,0.1,0.5,0.1,0.7,0.1c0.8,0,1.5-0.3,2.1-0.9c0.4-0.4,0.6-0.8,0.8-1.3c4.9-3,9.6-6.7,14-11c0.1-0.1,0.1-0.1,0.2-0.2
		c0,0,0.1-0.1,0.1-0.1c0.2-0.2,0.3-0.3,0.5-0.5c4.6-4.6,8.6-9.6,11.8-14.9c0.5-0.1,0.9-0.4,1.3-0.8c0.8-0.8,1-1.9,0.8-2.8
		C231.5,71.9,233.7,54.5,229.1,40.1z M206.1,100.4l-5.7-5.7l10.8-10.8l4.4,4.4C212.9,92.5,209.7,96.6,206.1,100.4z M191,112.8
		l-4.4-4.4l9.5-9.5l5.7,5.7C198.4,107.8,194.7,110.5,191,112.8z M131.6,113.4l10.7-10.7l8.3,8.3l-8.8,8.8
		C138.1,118.2,134.7,116.1,131.6,113.4z M121.6,98.4l8.2-8.2l8.3,8.3l-10.6,10.6C125,105.9,123,102.3,121.6,98.4z M126.2,56.5
		l1.9,1.9l-5,5C124,61.1,125,58.8,126.2,56.5z M137.4,40.2l4.4,4.4l-9.5,9.5l-3.1-3.1C131.6,47.3,134.3,43.7,137.4,40.2z
		 M153.7,26.6l3.1,3.1l-10.8,10.8l-4.5-4.5C145.5,32.3,149.5,29.2,153.7,26.6z M211.7,24.8l-10.6,10.6l-8.3-8.3l8.2-8.2
		C204.9,20.3,208.5,22.3,211.7,24.8z M222.4,39.2l-8.8,8.8l-8.3-8.3L216.1,29C218.8,32,220.9,35.4,222.4,39.2z M194.4,67.2L183.6,78
		l-8.3-8.3l10.8-10.8L194.4,67.2z M190.4,54.7l10.8-10.8l8.3,8.3L198.6,63L190.4,54.7z M171.1,65.5l-8.3-8.3l10.8-10.8l8.3,8.3
		L171.1,65.5z M158.6,52.9l-8.3-8.3l10.8-10.8l8.3,8.3L158.6,52.9z M154.4,57.2l-9.5,9.5l-8.3-8.3l9.5-9.5L154.4,57.2z M140.6,70.9
		l-10.8,10.8l-8.3-8.3l10.8-10.8L140.6,70.9z M144.9,75.2l8.3,8.3l-10.8,10.8l-8.3-8.3L144.9,75.2z M149.1,70.9l9.5-9.5l8.3,8.3
		l-9.5,9.5L149.1,70.9z M171.1,73.9l8.3,8.3l-9.5,9.5l-8.3-8.3L171.1,73.9z M183.6,86.4l8.3,8.3l-9.5,9.5l-8.3-8.3L183.6,86.4z
		 M187.9,82.2l10.8-10.8l8.3,8.3l-10.8,10.8L187.9,82.2z M202.9,67.2l10.8-10.8l8.3,8.3l-10.8,10.8L202.9,67.2z M225.4,59.7
		l-7.5-7.5l6.6-6.6C225.4,50.1,225.7,54.8,225.4,59.7z M196.9,39.7l-10.8,10.8l-8.3-8.3l10.8-10.8L196.9,39.7z M173.6,37.9l-8.3-8.3
		l10.8-10.8l8.3,8.3L173.6,37.9z M161.1,25.4l-1.9-1.9c2.3-1.2,4.6-2.2,7-3.1L161.1,25.4z M119.4,79.7l6.2,6.2l-5.7,5.7
		C119.2,87.8,119.1,83.8,119.4,79.7z M146.6,98.5l10.8-10.8l8.3,8.3l-10.8,10.8L146.6,98.5z M169.9,100.2l8.3,8.3l-10.8,10.8
		l-8.3-8.3L169.9,100.2z M182.4,112.7l3.2,3.2c-3.5,1.8-7.2,3.3-10.8,4.4L182.4,112.7z M215.4,79.7l7.6-7.6
		c-1.1,3.6-2.6,7.2-4.4,10.8L215.4,79.7z M194.4,17.2l-5.7,5.7l-6.2-6.2c1.4-0.1,2.7-0.2,4-0.2C189.1,16.5,191.8,16.8,194.4,17.2z
		 M148.3,121.8l6.6-6.6l7.5,7.5C157.5,123.1,152.7,122.8,148.3,121.8z"/>
	<path d="M53.3,86.5c18.7,0,33.9-15.2,33.9-33.9S72.1,18.6,53.3,18.6S19.4,33.8,19.4,52.6S34.6,86.5,53.3,86.5z M76.8,67.6
		c-6-2.6-9.9-8.5-9.9-15.1c0-6.6,3.9-12.5,9.9-15.1c2.8,4.4,4.4,9.5,4.4,15.1C81.3,58.1,79.6,63.3,76.8,67.6z M73,32.7
		c-7.3,3.8-12,11.4-12,19.9c0,8.4,4.7,16,12,19.9c-5.1,5-12,8.1-19.6,8.1s-14.6-3.1-19.6-8.1c7.3-3.8,12-11.4,12-19.9
		c0-8.4-4.7-16-12-19.9c5.1-5,12-8.1,19.6-8.1S67.9,27.7,73,32.7z M29.8,37.5c6,2.6,9.9,8.5,9.9,15.1c0,6.6-3.9,12.5-9.9,15.1
		c-2.8-4.4-4.4-9.5-4.4-15.1C25.4,47,27,41.8,29.8,37.5z"/>
</g>
</svg>
